<?xml version="1.0" encoding="UTF-8"?>
<svg id="Layer_1" xmlns="http://www.w3.org/2000/svg" version="1.1" viewBox="50 200 500 450" width="64" height="64">
  <!-- Generator: Adobe Illustrator 29.5.1, SVG Export Plug-In . SVG Version: 2.1.0 Build 141)  -->
  <defs>
    <style>
      .st0 {
        fill: #D4AF37;
      }
    </style>
  </defs>
  <polygon class="st0" points="420.01 304.98 198.36 304.98 212.22 280.98 420.02 280.98 396.93 240.98 189.12 240.98 129.09 344.96 350.74 344.96 336.9 368.96 115.24 368.96 92.15 408.94 359.98 408.96 420.01 304.98"/>
  <polygon class="st0" points="92.14 432.95 115.23 472.93 276.86 472.93 226.07 560.92 212.22 560.92 175.27 496.92 129.08 496.92 189.12 600.91 249.16 600.91 346.13 432.95 92.14 432.95"/>
  <polygon class="st0" points="440.8 316.96 276.87 600.91 323.05 600.91 440.8 396.96 454.65 420.95 350.74 600.91 396.93 600.91 500.83 420.94 440.8 316.96"/>
</svg>
